Coordinates
version=1
nRows=14
nColumns=63
inDegrees=yes

Units are S.I. units (second, meters, Newtons, ...)
If the header above contains a line with 'inDegrees', this indicates whether rotational values are in degrees (yes) or radians (no).

endheader
time	pelvis_tilt	pelvis_list	pelvis_rotation	pelvis_tx	pelvis_ty	pelvis_tz	hip_flexion_r	hip_adduction_r	hip_rotation_r	knee_angle_r	knee_angle_r_beta	ankle_angle_r	subtalar_angle_r	mtp_angle_r	hip_flexion_l	hip_adduction_l	hip_rotation_l	knee_angle_l	knee_angle_l_beta	ankle_angle_l	subtalar_angle_l	mtp_angle_l	L5_S1_Flex_Ext	L5_S1_Lat_Bending	L5_S1_axial_rotation	L4_L5_Flex_Ext	L4_L5_Lat_Bending	L4_L5_axial_rotation	L3_L4_Flex_Ext	L3_L4_Lat_Bending	L3_L4_axial_rotation	L2_L3_Flex_Ext	L2_L3_Lat_Bending	L2_L3_axial_rotation	L1_L2_Flex_Ext	L1_L2_Lat_Bending	L1_L2_axial_rotation	L1_T12_Flex_Ext	L1_T12_Lat_Bending	L1_T12_axial_rotation	Abs_r3	Abs_r2	Abs_r1	Abs_t1	Abs_t2	neck_flexion	neck_bending	neck_rotation	arm_flex_r	arm_add_r	arm_rot_r	elbow_flex_r	pro_sup_r	wrist_flex_r	wrist_dev_r	arm_flex_l	arm_add_l	arm_rot_l	elbow_flex_l	pro_sup_l	wrist_flex_l	wrist_dev_l
0.000000	0.035630	-3.285255	93.733893	0.265769	0.684302	0.677462	12.274347	-4.019332	-19.340075	21.199423	0.370000	40.035975	15.259834	0.000000	4.646474	-0.263043	18.229904	1.820843	0.031780	32.768983	-13.119686	0.000000	0.382210	-0.074890	-1.244067	0.709802	-0.099604	-1.321821	0.627932	-0.182088	-1.321821	0.436827	-0.182088	-1.088559	0.354920	-0.152716	-1.010805	0.218395	-0.116005	-0.933050	2.730086	-0.847172	-6.919129	0.000000	0.000000	28.196351	8.839142	-8.698445	17.628643	-7.724925	62.605691	35.913676	20.286973	5.914806	-1.981745	17.183084	-4.560089	62.288246	32.027341	60.667090	-2.888562	-8.372823
0.016667	-0.347457	-2.788102	93.420138	0.265678	0.685719	0.672858	11.644360	-4.446926	-19.275095	21.328170	0.372247	40.477251	15.573945	0.000000	3.491125	0.101077	17.996457	1.228306	0.021438	32.632439	-13.282459	0.000000	0.364673	-0.129275	-1.067906	0.677234	-0.171936	-1.134650	0.599121	-0.314319	-1.134650	0.416785	-0.314319	-0.934418	0.338635	-0.263617	-0.867674	0.208374	-0.200247	-0.800930	2.604823	-1.462384	-5.939374	0.000000	0.000000	28.181850	9.087189	-9.479842	16.311684	-7.679270	60.677944	36.425631	19.167343	5.540048	-2.187332	16.804941	-4.522647	62.614169	31.702760	62.871388	-2.991039	-7.757865
0.033333	-0.631230	-2.365968	93.151820	0.265408	0.686843	0.669093	11.159580	-4.789169	-19.165059	21.506703	0.375363	40.863779	15.790740	0.000000	2.573981	0.399091	17.742469	0.837485	0.014617	32.577733	-13.409696	0.000000	0.348303	-0.164148	-0.928838	0.646833	-0.218317	-0.986890	0.572226	-0.399110	-0.986890	0.398075	-0.399110	-0.812733	0.323434	-0.334731	-0.754680	0.199020	-0.254265	-0.696628	2.487891	-1.856876	-5.165916	0.000000	0.000000	28.169561	9.251365	-9.916225	15.317579	-7.646043	59.369560	36.719626	18.241986	5.250975	-2.191335	16.534546	-4.431369	63.046516	31.285626	64.405406	-3.088453	-7.287872
0.050000	-0.826494	-2.015171	92.927726	0.264984	0.687701	0.666101	10.808284	-5.054494	-19.015575	21.726860	0.379205	41.199020	15.917837	0.000000	1.875811	0.637548	17.469909	0.626862	0.010941	32.595171	-13.498426	0.000000	0.333265	-0.181882	-0.823600	0.618907	-0.241903	-0.875075	0.547521	-0.442227	-0.875075	0.380889	-0.442227	-0.720650	0.309470	-0.370893	-0.669175	0.190428	-0.281735	-0.617700	2.380480	-2.057483	-4.580614	0.000000	0.000000	28.159469	9.340679	-10.052113	14.614573	-7.624984	58.602848	36.818917	17.529838	5.031865	-2.029010	16.360056	-4.295238	63.559506	30.792215	65.358112	-3.182640	-6.946800
0.066667	-0.944050	-1.732029	92.746644	0.264433	0.688316	0.663817	10.578748	-5.251337	-18.832250	21.980480	0.383632	41.486436	15.962854	0.000000	1.377383	0.822994	17.180749	0.574917	0.010034	32.675057	-13.545674	0.000000	0.319728	-0.184848	-0.748931	0.593766	-0.245848	-0.795739	0.525280	-0.449440	-0.795739	0.365417	-0.449440	-0.655315	0.296899	-0.376942	-0.608506	0.182692	-0.286330	-0.561698	2.283782	-2.091038	-4.165329	0.000000	0.000000	28.151553	9.364137	-9.932024	14.170915	-7.615837	58.300121	36.746763	17.049839	4.867000	-1.735611	16.269631	-4.123236	64.127358	30.238801	65.818475	-3.275437	-6.718603
0.083333	-0.994702	-1.512860	92.607360	0.263778	0.688716	0.662173	10.459248	-5.388130	-18.620694	22.259398	0.388500	41.729491	15.933411	0.000000	1.059466	0.961977	16.876958	0.660133	0.011521	32.807696	-13.548469	0.000000	0.307856	-0.175419	-0.701570	0.571720	-0.233307	-0.745418	0.505777	-0.426514	-0.745418	0.351849	-0.426514	-0.613874	0.285875	-0.357715	-0.570025	0.175909	-0.271724	-0.526177	2.198985	-1.984377	-3.901921	0.000000	0.000000	28.145797	9.330749	-9.600476	13.954851	-7.618344	58.383688	36.526419	16.820924	4.740657	-1.346394	16.251428	-3.924348	64.724291	29.641660	65.875464	-3.368680	-6.587237
0.100000	-0.989253	-1.353981	92.508662	0.263044	0.688925	0.661105	10.438063	-5.473309	-18.386513	22.555455	0.393667	41.931647	15.837126	0.000000	0.902829	1.061044	16.560507	0.860992	0.015027	32.983393	-13.503836	0.000000	0.297818	-0.155967	-0.678255	0.553077	-0.207436	-0.720646	0.489285	-0.379218	-0.720646	0.340376	-0.379218	-0.593473	0.276554	-0.318048	-0.551082	0.170173	-0.241593	-0.508691	2.127282	-1.764331	-3.772250	0.000000	0.000000	28.142182	9.249523	-9.101989	13.934627	-7.632247	58.775862	36.181145	16.862032	4.637116	-0.896613	16.293605	-3.707556	65.324522	29.017066	65.618049	-3.464205	-6.536657
0.116667	-0.938507	-1.251711	92.449337	0.262258	0.688969	0.660546	10.503468	-5.515308	-18.135317	22.860487	0.398991	42.096367	15.681617	0.000000	0.888239	1.126741	16.233366	1.155975	0.020176	33.192454	-13.408803	0.000000	0.289779	-0.128864	-0.675724	0.538148	-0.171389	-0.717957	0.476078	-0.313320	-0.717957	0.331188	-0.313320	-0.591259	0.269089	-0.262780	-0.549026	0.165580	-0.199610	-0.506793	2.069862	-1.457736	-3.758176	0.000000	0.000000	28.140691	9.129468	-8.481080	14.078490	-7.657287	59.398953	35.734196	17.192100	4.540657	-0.421522	16.384319	-3.481844	65.902271	28.381295	65.135199	-3.563849	-6.550818
0.133333	-0.853266	-1.202367	92.428172	0.261443	0.688872	0.660429	10.643741	-5.522560	-17.872714	23.166332	0.404329	42.227113	15.474504	0.000000	0.996465	1.165617	15.897506	1.523564	0.026591	33.425182	-13.260398	0.000000	0.283907	-0.096482	-0.690717	0.527243	-0.128321	-0.733887	0.466430	-0.234587	-0.733887	0.324477	-0.234587	-0.604377	0.263636	-0.196747	-0.561207	0.162224	-0.149451	-0.518038	2.027916	-1.091426	-3.841560	0.000000	0.000000	28.141305	8.979591	-7.782270	14.354688	-7.693207	60.175272	35.208830	17.830064	4.435559	0.043623	16.511730	-3.256195	66.431757	27.750622	64.515882	-3.669448	-6.613676
0.150000	-0.744334	-1.202266	92.443955	0.260626	0.688661	0.660690	10.847158	-5.503501	-17.604311	23.464828	0.409539	42.327348	15.223405	0.000000	1.208276	1.184217	15.554897	1.942241	0.033898	33.671883	-13.055646	0.000000	0.280367	-0.061194	-0.719971	0.520670	-0.081387	-0.764969	0.460615	-0.148786	-0.764969	0.320432	-0.148786	-0.629974	0.260349	-0.124786	-0.584976	0.160202	-0.094789	-0.539978	2.002634	-0.692234	-4.004262	0.000000	0.000000	28.144006	8.808901	-7.050076	14.731467	-7.739749	61.027129	34.628305	18.794863	4.306102	0.463568	16.663994	-3.039592	66.887197	27.141321	63.849069	-3.782839	-6.709186
0.166667	-0.622514	-1.247727	92.495473	0.259831	0.688361	0.661261	11.101996	-5.466564	-17.335717	23.747813	0.414478	42.400535	14.935938	0.000000	1.504440	1.189090	15.207509	2.390487	0.041722	33.922862	-12.791576	0.000000	0.279327	-0.025370	-0.760225	0.518739	-0.033742	-0.807739	0.458907	-0.061685	-0.807739	0.319243	-0.061685	-0.665196	0.259383	-0.051735	-0.617682	0.159608	-0.039299	-0.570168	1.995206	-0.286994	-4.228141	0.000000	0.000000	28.148777	8.626406	-6.329016	15.177074	-7.796655	61.876837	34.015878	20.105434	4.136564	0.803057	16.829269	-2.841019	67.242812	26.569667	63.223728	-3.905857	-6.821304
0.183333	-0.515929	-1.350943	92.582908	0.259152	0.688027	0.662032	11.405350	-5.437993	-17.106003	23.987677	0.418664	42.469292	14.674474	0.000000	1.863231	1.196565	14.888012	2.807165	0.048994	34.113838	-12.512310	0.000000	0.284379	0.003326	-0.797879	0.528121	0.004424	-0.847747	0.467207	0.008087	-0.847747	0.325017	0.008087	-0.698145	0.264075	0.006783	-0.648277	0.162494	0.005152	-0.598410	2.031292	0.037627	-4.437566	0.000000	0.000000	28.155680	8.405971	-5.876381	15.588678	-7.859168	62.363303	33.422541	22.377213	3.790227	0.805887	16.984512	-2.673738	67.278656	26.048437	63.437828	-4.028089	-6.898494
0.200000	-0.432648	-1.494539	92.711772	0.258610	0.687684	0.662955	11.725654	-5.412274	-16.880069	24.174973	0.421933	42.505379	14.367623	0.000000	2.254929	1.210453	14.598960	3.195563	0.055773	34.272773	-12.175245	0.000000	0.292112	0.023424	-0.837268	0.542480	0.031154	-0.889597	0.479910	0.056953	-0.889597	0.333854	0.056953	-0.732610	0.271255	0.047766	-0.680280	0.166913	0.036284	-0.627951	2.086524	0.264977	-4.656634	0.000000	0.000000	28.165474	8.248183	-5.559681	15.977031	-7.930404	62.597101	32.848395	25.075561	3.380375	0.577241	17.117004	-2.565146	67.097539	25.658140	63.985803	-4.222837	-6.970038
0.216667	-0.374968	-1.666948	92.880981	0.258170	0.687344	0.663959	12.050117	-5.393825	-16.651695	24.316962	0.424411	42.522789	14.007917	0.000000	2.657446	1.231153	14.251687	3.540173	0.061788	34.434450	-11.646038	0.000000	0.301817	0.035342	-0.878498	0.560505	0.047005	-0.933404	0.495856	0.085931	-0.933404	0.344947	0.085931	-0.768686	0.280268	0.072070	-0.713780	0.172458	0.054745	-0.658873	2.155852	0.399798	-4.885942	0.000000	0.000000	28.177800	8.135678	-5.377058	16.324455	-8.025035	62.570077	32.338172	28.060045	2.916630	0.176168	17.218644	-2.509232	66.773009	25.382323	64.684939	-4.444193	-7.007579
